<?xml version="1.0" encoding="UTF-8" standalone="no"?>
<!-- Generator: Adobe Illustrator 21.0.2, SVG Export Plug-In . SVG Version: 6.00 Build 0)  -->

<svg
   xmlns:dc="http://purl.org/dc/elements/1.1/"
   xmlns:cc="http://creativecommons.org/ns#"
   xmlns:rdf="http://www.w3.org/1999/02/22-rdf-syntax-ns#"
   xmlns:svg="http://www.w3.org/2000/svg"
   xmlns="http://www.w3.org/2000/svg"
   xmlns:sodipodi="http://sodipodi.sourceforge.net/DTD/sodipodi-0.dtd"
   xmlns:inkscape="http://www.inkscape.org/namespaces/inkscape"
   version="1.1"
   id="Laag_1"
   x="0px"
   y="0px"
   viewBox="0 0 360.00001 360"
   xml:space="preserve"
   sodipodi:docname="cycle.svg"
   width="360"
   height="360"
   inkscape:version="0.92.1 r15371"><metadata
     id="metadata72"><rdf:RDF><cc:Work
         rdf:about=""><dc:format>image/svg+xml</dc:format><dc:type
           rdf:resource="http://purl.org/dc/dcmitype/StillImage" /><dc:title>fiets</dc:title></cc:Work></rdf:RDF></metadata><defs
     id="defs70" /><sodipodi:namedview
     pagecolor="#358422"
     bordercolor="#000000"
     borderopacity="1"
     objecttolerance="10"
     gridtolerance="10"
     guidetolerance="10"
     inkscape:pageopacity="0"
     inkscape:pageshadow="2"
     inkscape:window-width="1920"
     inkscape:window-height="1027"
     id="namedview68"
     showgrid="false"
     inkscape:zoom="2.3694444"
     inkscape:cx="113.10668"
     inkscape:cy="180"
     inkscape:window-x="0"
     inkscape:window-y="27"
     inkscape:window-maximized="1"
     inkscape:current-layer="Laag_1" /><style
     type="text/css"
     id="style61">
	.st0{fill:#1D1D1B;}
</style><title
     id="title63">fiets</title><path
     class="st0"
     d="m 296.12074,231.9295 c -11.30001,0 -22.40002,3.1 -32.00003,9 l -34.30003,-47.4 5.40001,-20 c 10.90001,-0.9 18.30001,-5.4 20.60002,-9.6 1,-1.5 1.1,-3.4 0.2,-4.9 -0.8,-1.3 -2.80001,-2.7 -7.60001,-2.3 -14.20001,1.2 -42.30003,-1.1 -42.50003,-1.1 -0.70001,-0.1 -4.40001,-0.5 -6.10001,1.1 -0.6,0.5 -1,1.3 -1,2.1 0,2.7 1.7,8.5 3.6,10.1 0.7,0.7 5.10001,4 23.20002,4.8 l -3.8,14 H 110.72059 l 5.2,-22.3 -23.300017,-18.2 c -0.1,-0.1 -0.1,-0.3 -0.2,-0.4 0.5,-0.3 2.300002,-1.2 7.000006,-1.3 H 121.1206 v -9.3 H 99.320579 c -3.000003,0.1 -12.30001,0.4 -15.300013,6.6 -2.400002,5 1.000001,9.8 1.400001,10.3 l 0.400001,0.5 19.700012,15.3 -15.900009,68.4 c -31.000026,-14 -67.400055,-0.2 -81.4000663,30.8 -14.0000114,31 -0.2000001,67.4 30.8000253,81.4 31.000025,14 67.40005,0.2 81.40007,-30.8 12.50001,-27.6 3,-60.2 -22.300022,-76.8 l 5.200002,-22.1 66.80006,69.4 c -2.90001,9.7 2.6,19.9 12.20001,22.8 1.7,0.5 3.5,0.8 5.3,0.8 0.5,0 1.1,0 1.6,-0.1 l 3.90001,14.1 h -2.50001 v 6.9 h 14.10001 v -6.9 h -4.4 l -4.5,-16 c 5,-2.5 8.5,-7.1 9.70001,-12.6 h 29.50002 c 2.7,33.8 32.30003,59 66.10005,56.3 33.80003,-2.7 59.00005,-32.3 56.30005,-66.1 -2.7,-31.9 -29.30003,-56.5 -61.30005,-56.5 z m -179.50015,61.4 c 0.1,28.9 -23.300016,52.4 -52.20004,52.5 -28.900023,0.1 -52.400042,-23.3 -52.500043,-52.2 -0.1,-28.9 23.300019,-52.4 52.200043,-52.5 8.000006,0 16.000013,1.8 23.200019,5.3 -3.300003,11.1 -9.800008,28.7 -17.500014,37.3 -1.600002,-0.9 -3.400003,-1.4 -5.300005,-1.4 -6.100005,-0.1 -11.200009,4.8 -11.300009,11 -0.1,6.1 4.800004,11.2 11.000009,11.3 6.100005,0.1 11.200009,-4.8 11.300009,-11 0,-0.7 -0.1,-1.5 -0.2,-2.2 9.700008,-9.7 16.700014,-28.7 20.100016,-40 13.300015,9.8 21.200015,25.3 21.200015,41.9 z m 140.00012,-47 c -12.70001,10.7 -20.50002,26 -21.70002,42.6 h -29.90003 c -0.1,-0.5 -0.3,-0.9 -0.5,-1.4 l 22.20002,-82.5 z m 29.80002,42.6 H 244.2207 c 1.1,-13.6 7.6,-26.2 17.90001,-35.1 l 24.80002,34.2 c -0.3,0.3 -0.4,0.6 -0.5,0.9 z m -177.90014,-92.1 h 110.70009 l -22.00002,82.1 c -2.9,-1.8 -6.30001,-2.8 -9.70001,-2.8 -0.5,0 -0.9,0 -1.4,0.1 l -3.9,-14 h 2.9 v -6.9 h -14.20001 v 6.9 h 4.1 l 4.4,15.8 c -1.6,0.8 -3.1,1.8 -4.4,3.1 l -69.30006,-72 z m 187.60015,148.6 c -26.90002,0 -49.30004,-20.5 -51.90004,-47.2 h 41.80003 c 2.4,5.6 8.80001,8.2 14.40001,5.9 5.60001,-2.4 8.20001,-8.8 5.90001,-14.4 -1.7,-4.1 -5.80001,-6.8 -10.20001,-6.7 -0.5,0 -1,0.1 -1.5,0.1 l -25.00002,-34.6 c 24.80002,-14.7 56.70004,-6.5 71.40006,18.3 14.70001,24.8 6.5,56.7 -18.30002,71.4 -8.10001,4.7 -17.30001,7.2 -26.60002,7.2 z"
     id="path65"
     inkscape:connector-curvature="0"
     style="fill:#fffff9;fill-opacity:1" /></svg>
