<?xml version="1.0" encoding="utf-8"?>
<!-- Generator: Adobe Illustrator 21.0.2, SVG Export Plug-In . SVG Version: 6.00 Build 0)  -->
<svg version="1.1" id="Laag_1" xmlns="http://www.w3.org/2000/svg" xmlns:xlink="http://www.w3.org/1999/xlink" x="0px" y="0px"
	 viewBox="0 0 354.4 218.5" style="enable-background:new 0 0 354.4 218.5;" xml:space="preserve">
<style type="text/css">
	.st0{fill:#1D1D1B;}
</style>
<title>fiets</title>
<path class="st0" d="M293,95.7c-11.3,0-22.4,3.1-32,9l-34.3-47.4l5.4-20c10.9-0.9,18.3-5.4,20.6-9.6c1-1.5,1.1-3.4,0.2-4.9
	c-0.8-1.3-2.8-2.7-7.6-2.3c-14.2,1.2-42.3-1.1-42.5-1.1c-0.7-0.1-4.4-0.5-6.1,1.1c-0.6,0.5-1,1.3-1,2.1c0,2.7,1.7,8.5,3.6,10.1
	c0.7,0.7,5.1,4,23.2,4.8l-3.8,14H107.6l5.2-22.3L89.5,11c-0.1-0.1-0.1-0.3-0.2-0.4c0.5-0.3,2.3-1.2,7-1.3H118V0H96.2
	c-3,0.1-12.3,0.4-15.3,6.6c-2.4,5,1,9.8,1.4,10.3l0.4,0.5l19.7,15.3l-15.9,68.4c-31-14-67.4-0.2-81.4,30.8s-0.2,67.4,30.8,81.4
	c31,14,67.4,0.2,81.4-30.8c12.5-27.6,3-60.2-22.3-76.8l5.2-22.1l66.8,69.4c-2.9,9.7,2.6,19.9,12.2,22.8c1.7,0.5,3.5,0.8,5.3,0.8
	c0.5,0,1.1,0,1.6-0.1l3.9,14.1h-2.5v6.9h14.1v-6.9h-4.4l-4.5-16c5-2.5,8.5-7.1,9.7-12.6h29.5c2.7,33.8,32.3,59,66.1,56.3
	c33.8-2.7,59-32.3,56.3-66.1C351.6,120.3,325,95.7,293,95.7L293,95.7z M113.5,157.1c0.1,28.9-23.3,52.4-52.2,52.5
	S8.9,186.3,8.8,157.4C8.7,128.5,32.1,105,61,104.9c8,0,16,1.8,23.2,5.3c-3.3,11.1-9.8,28.7-17.5,37.3c-1.6-0.9-3.4-1.4-5.3-1.4
	c-6.1-0.1-11.2,4.8-11.3,11c-0.1,6.1,4.8,11.2,11,11.3c6.1,0.1,11.2-4.8,11.3-11c0-0.7-0.1-1.5-0.2-2.2c9.7-9.7,16.7-28.7,20.1-40
	C105.6,125,113.5,140.5,113.5,157.1z M253.5,110.1c-12.7,10.7-20.5,26-21.7,42.6h-29.9c-0.1-0.5-0.3-0.9-0.5-1.4l22.2-82.5
	L253.5,110.1z M283.3,152.7h-42.2c1.1-13.6,7.6-26.2,17.9-35.1l24.8,34.2C283.5,152.1,283.4,152.4,283.3,152.7L283.3,152.7z
	 M105.4,60.6h110.7l-22,82.1c-2.9-1.8-6.3-2.8-9.7-2.8c-0.5,0-0.9,0-1.4,0.1l-3.9-14h2.9v-6.9h-14.2v6.9h4.1l4.4,15.8
	c-1.6,0.8-3.1,1.8-4.4,3.1l-69.3-72L105.4,60.6z M293,209.2c-26.9,0-49.3-20.5-51.9-47.2h41.8c2.4,5.6,8.8,8.2,14.4,5.9
	c5.6-2.4,8.2-8.8,5.9-14.4c-1.7-4.1-5.8-6.8-10.2-6.7c-0.5,0-1,0.1-1.5,0.1l-25-34.6c24.8-14.7,56.7-6.5,71.4,18.3
	s6.5,56.7-18.3,71.4C311.5,206.7,302.3,209.2,293,209.2L293,209.2z"/>
</svg>
