<?xml version="1.0" encoding="UTF-8" standalone="no"?>
<!-- Generator: Adobe Illustrator 21.0.2, SVG Export Plug-In . SVG Version: 6.00 Build 0)  -->

<svg
   xmlns:dc="http://purl.org/dc/elements/1.1/"
   xmlns:cc="http://creativecommons.org/ns#"
   xmlns:rdf="http://www.w3.org/1999/02/22-rdf-syntax-ns#"
   xmlns:svg="http://www.w3.org/2000/svg"
   xmlns="http://www.w3.org/2000/svg"
   xmlns:sodipodi="http://sodipodi.sourceforge.net/DTD/sodipodi-0.dtd"
   xmlns:inkscape="http://www.inkscape.org/namespaces/inkscape"
   version="1.1"
   id="Laag_1"
   x="0px"
   y="0px"
   viewBox="0 0 359.99999 359.99999"
   xml:space="preserve"
   sodipodi:docname="walk.svg"
   width="360"
   height="360"
   inkscape:version="0.92.1 r15371"><metadata
     id="metadata965"><rdf:RDF><cc:Work
         rdf:about=""><dc:format>image/svg+xml</dc:format><dc:type
           rdf:resource="http://purl.org/dc/dcmitype/StillImage" /><dc:title>wandelaar</dc:title></cc:Work></rdf:RDF></metadata><defs
     id="defs963" /><sodipodi:namedview
     pagecolor="#be0e0e"
     bordercolor="#000000"
     borderopacity="1"
     objecttolerance="10"
     gridtolerance="10"
     guidetolerance="10"
     inkscape:pageopacity="0"
     inkscape:pageshadow="2"
     inkscape:window-width="1920"
     inkscape:window-height="1027"
     id="namedview961"
     showgrid="false"
     inkscape:zoom="0.76350694"
     inkscape:cx="90.800003"
     inkscape:cy="142.10742"
     inkscape:window-x="0"
     inkscape:window-y="27"
     inkscape:window-maximized="1"
     inkscape:current-layer="Laag_1" /><style
     type="text/css"
     id="style936">
	.st0{fill:#1D1D1B;}
</style><title
     id="title938">wandelaar</title><g
     id="g977"
     style="fill:#ffffff;fill-opacity:1"
     transform="translate(89.20171,-9.3506331e-5)"><path
       style="fill:#ffffff;fill-opacity:1"
       inkscape:connector-curvature="0"
       id="path940"
       d="m 89.7,90.899994 c 9.4,8.7 24,8.1 32.6,-1.3 8.6,-9.4 8.1,-24 -1.3,-32.6 -9.4,-8.7 -24,-8.1 -32.6,1.3 0,0 0,0 -0.1,0.1 -8.5,9.3 -7.9,23.9 1.4,32.5 z"
       class="st0" /><path
       style="fill:#ffffff;fill-opacity:1"
       inkscape:connector-curvature="0"
       id="path942"
       d="m 152.2,124.59999 c -3.7,-3.7 -9.7,-3.8 -13.5,-0.1 -3.7,3.6 -3.8,9.6 -0.2,13.4 l 25.7,26.6 c 3.8,3.7 9.8,3.5 13.5,-0.3 3.5,-3.6 3.6,-9.3 0.2,-13 z"
       class="st0" /><path
       style="fill:#ffffff;fill-opacity:1"
       inkscape:connector-curvature="0"
       id="path944"
       d="m 181.5,158.99999 c -0.4,-5.2 -4.9,-9.2 -10.2,-8.8 -4.8,0.3 -8.6,4.2 -8.8,8.9 l 0.2,37 c -0.3,5.2 3.7,9.8 8.9,10.1 5.2,0.3 9.8,-3.7 10.1,-8.9 0,-0.4 0,-0.8 0,-1.2 z"
       class="st0" /><path
       style="fill:#ffffff;fill-opacity:1"
       inkscape:connector-curvature="0"
       id="path946"
       d="m 92.4,282.89999 c -0.7,-7 -7,-12 -14,-11.3 -6.4,0.7 -11.3,6.1 -11.4,12.5 l 2.8,57.6 c 0.3,7 6.3,12.4 13.3,12.1 7,-0.3 12.4,-6.3 12.1,-13.3 v 0 z"
       class="st0" /><path
       style="fill:#ffffff;fill-opacity:1"
       inkscape:connector-curvature="0"
       id="path948"
       d="m 124.5,245.09999 c 4.4,-5.5 3.5,-13.5 -2,-17.8 -5.5,-4.4 -13.5,-3.5 -17.8,2 -0.1,0.2 -0.3,0.4 -0.4,0.6 l -34.8,46 c -4.2,5.6 -3.1,13.6 2.5,17.8 5.6,4.2 13.6,3.1 17.8,-2.5 z"
       class="st0" /><path
       style="fill:#ffffff;fill-opacity:1"
       inkscape:connector-curvature="0"
       id="path950"
       d="m 137.9,288.39999 c -1.2,-6.9 -7.8,-11.6 -14.7,-10.4 -6.8,1.2 -11.4,7.5 -10.4,14.3 l 9,57 c 1.1,6.9 7.6,11.7 14.5,10.5 6.9,-1.1 11.7,-7.6 10.6,-14.5 z"
       class="st0" /><path
       style="fill:#ffffff;fill-opacity:1"
       inkscape:connector-curvature="0"
       id="path952"
       d="m 110.4,276.39999 3.6,23.2 c 1.1,6.9 7.6,11.7 14.5,10.6 6.9,-1.1 11.7,-7.6 10.6,-14.5 v 0 l -7.5,-47.8 z"
       class="st0" /><path
       style="fill:#ffffff;fill-opacity:1"
       inkscape:connector-curvature="0"
       id="path954"
       d="m 132,196.99999 c 0.6,10.6 -7.6,19.7 -18.3,20.3 -10.6,0.6 -19.7,-7.6 -20.3,-18.3 0,-0.1 0,-0.2 0,-0.3 l -3.4,-73.2 c -0.6,-10.6 7.6,-19.7 18.2,-20.2 10.6,-0.6 19.7,7.6 20.2,18.2 0,0.1 0,0.2 0,0.3 z"
       class="st0" /><path
       style="fill:#ffffff;fill-opacity:1"
       inkscape:connector-curvature="0"
       id="path956"
       d="m 80.9,153.89999 c 3.9,-3.5 4.2,-9.5 0.7,-13.4 -3.5,-3.9 -9.5,-4.2 -13.4,-0.7 -0.1,0.1 -0.3,0.3 -0.4,0.4 l -26.6,25.7 c -3.8,3.6 -3.9,9.6 -0.3,13.4 3.6,3.8 9.6,3.9 13.4,0.3 z"
       class="st0" /><path
       style="fill:#ffffff;fill-opacity:1"
       inkscape:connector-curvature="0"
       id="path958"
       d="m 46.4,183.09999 c 5.3,0.2 9.7,-3.9 9.9,-9.2 0.2,-5.3 -3.9,-9.7 -9.2,-9.9 -0.2,0 -0.4,0 -0.6,0 l -37,0.1 c -5.3,0 -9.5,4.2 -9.6,9.5 -0.1,5.3 4.2,9.5 9.5,9.6 z"
       class="st0" /></g></svg>
