<?xml version="1.0" encoding="utf-8"?>
<!-- Generator: Adobe Illustrator 21.0.2, SVG Export Plug-In . SVG Version: 6.00 Build 0)  -->
<svg version="1.1" id="Laag_1" xmlns="http://www.w3.org/2000/svg" xmlns:xlink="http://www.w3.org/1999/xlink" x="0px" y="0px"
	 viewBox="0 0 181.6 309.1" style="enable-background:new 0 0 181.6 309.1;" xml:space="preserve">
<style type="text/css">
	.st0{fill:#1D1D1B;}
</style>
<title>wandelaar</title>
<path class="st0" d="M89.7,40c9.4,8.7,24,8.1,32.6-1.3s8.1-24-1.3-32.6c-9.4-8.7-24-8.1-32.6,1.3c0,0,0,0-0.1,0.1
	C79.8,16.8,80.4,31.4,89.7,40z"/>
<path class="st0" d="M152.2,73.7c-3.7-3.7-9.7-3.8-13.5-0.1c-3.7,3.6-3.8,9.6-0.2,13.4l25.7,26.6c3.8,3.7,9.8,3.5,13.5-0.3
	c3.5-3.6,3.6-9.3,0.2-13L152.2,73.7z"/>
<path class="st0" d="M181.5,108.1c-0.4-5.2-4.9-9.2-10.2-8.8c-4.8,0.3-8.6,4.2-8.8,8.9l0.2,37c-0.3,5.2,3.7,9.8,8.9,10.1
	c5.2,0.3,9.8-3.7,10.1-8.9c0-0.4,0-0.8,0-1.2L181.5,108.1z"/>
<path class="st0" d="M92.4,232c-0.7-7-7-12-14-11.3c-6.4,0.7-11.3,6.1-11.4,12.5l2.8,57.6c0.3,7,6.3,12.4,13.3,12.1
	s12.4-6.3,12.1-13.3l0,0L92.4,232z"/>
<path class="st0" d="M124.5,194.2c4.4-5.5,3.5-13.5-2-17.8c-5.5-4.4-13.5-3.5-17.8,2c-0.1,0.2-0.3,0.4-0.4,0.6L69.5,225
	c-4.2,5.6-3.1,13.6,2.5,17.8c5.6,4.2,13.6,3.1,17.8-2.5L124.5,194.2z"/>
<path class="st0" d="M137.9,237.5c-1.2-6.9-7.8-11.6-14.7-10.4c-6.8,1.2-11.4,7.5-10.4,14.3l9,57c1.1,6.9,7.6,11.7,14.5,10.5
	c6.9-1.1,11.7-7.6,10.6-14.5L137.9,237.5z"/>
<path class="st0" d="M110.4,225.5l3.6,23.2c1.1,6.9,7.6,11.7,14.5,10.6c6.9-1.1,11.7-7.6,10.6-14.5l0,0l-7.5-47.8L110.4,225.5z"/>
<path class="st0" d="M132,146.1c0.6,10.6-7.6,19.7-18.3,20.3c-10.6,0.6-19.7-7.6-20.3-18.3c0-0.1,0-0.2,0-0.3L90,74.6
	c-0.6-10.6,7.6-19.7,18.2-20.2c10.6-0.6,19.7,7.6,20.2,18.2c0,0.1,0,0.2,0,0.3L132,146.1z"/>
<path class="st0" d="M80.9,103c3.9-3.5,4.2-9.5,0.7-13.4c-3.5-3.9-9.5-4.2-13.4-0.7c-0.1,0.1-0.3,0.3-0.4,0.4l-26.6,25.7
	c-3.8,3.6-3.9,9.6-0.3,13.4c3.6,3.8,9.6,3.9,13.4,0.3L80.9,103z"/>
<path class="st0" d="M46.4,132.2c5.3,0.2,9.7-3.9,9.9-9.2c0.2-5.3-3.9-9.7-9.2-9.9c-0.2,0-0.4,0-0.6,0l-37,0.1
	c-5.3,0-9.5,4.2-9.6,9.5s4.2,9.5,9.5,9.6L46.4,132.2z"/>
</svg>
